<svg width="39" height="39" viewBox="0 0 39 39" fill="currentColor" xmlns="http://www.w3.org/2000/svg">
<path fill-rule="evenodd" stroke="none" clip-rule="evenodd" d="M35 19.5C35 28.0604 28.0604 35 19.5 35C10.9396 35 4 28.0604 4 19.5C4 10.9396 10.9396 4 19.5 4C28.0604 4 35 10.9396 35 19.5ZM39 19.5C39 30.2696 30.2696 39 19.5 39C8.73045 39 0 30.2696 0 19.5C0 8.73045 8.73045 0 19.5 0C30.2696 0 39 8.73045 39 19.5ZM17.861 23.87V24.41H21.506V24.005C21.506 23.267 21.722 22.682 22.154 22.25C22.586 21.8 23.162 21.287 23.882 20.711C24.674 20.081 25.286 19.46 25.718 18.848C26.168 18.236 26.393 17.417 26.393 16.391C26.393 14.825 25.862 13.592 24.8 12.692C23.756 11.792 22.217 11.342 20.183 11.342C19.175 11.342 18.212 11.441 17.294 11.639C16.394 11.819 15.629 12.062 14.999 12.368V15.446C15.539 15.176 16.196 14.951 16.97 14.771C17.744 14.573 18.491 14.474 19.211 14.474C20.489 14.474 21.389 14.645 21.911 14.987C22.433 15.329 22.694 15.923 22.694 16.769C22.694 17.309 22.532 17.786 22.208 18.2C21.884 18.614 21.479 19.01 20.993 19.388C20.507 19.766 20.021 20.171 19.535 20.603C19.067 21.017 18.671 21.485 18.347 22.007C18.023 22.529 17.861 23.15 17.861 23.87ZM17.753 26.327V29H21.587V26.327H17.753Z" />
</svg>
